<?xml version="1.0" standalone="no"?>
<!DOCTYPE svg PUBLIC "-//W3C//DTD SVG 20010904//EN"
 "http://www.w3.org/TR/2001/REC-SVG-20010904/DTD/svg10.dtd">
<svg version="1.0" xmlns="http://www.w3.org/2000/svg"
 width="128.000000pt" height="128.000000pt" viewBox="0 0 128.000000 128.000000"
 preserveAspectRatio="xMidYMid meet">
<metadata>
Created by potrace 1.11, written by Peter Selinger 2001-2013
</metadata>
<g transform="translate(0.000000,128.000000) scale(0.100000,-0.100000)"
fill="#000000" stroke="none">
<path d="M258 1235 c-55 -18 -103 -51 -143 -98 -46 -53 -46 -54 -68 -101 -24
-51 -16 -81 38 -143 25 -28 45 -58 45 -67 0 -9 8 -16 18 -16 23 0 92 -70 92
-93 0 -9 7 -17 16 -17 9 0 136 -120 283 -266 146 -146 277 -272 292 -279 33
-18 316 -116 352 -122 15 -3 30 -9 33 -14 3 -5 16 -9 30 -9 32 0 31 15 -12
135 -20 55 -37 105 -38 110 -1 6 -17 55 -36 110 l-35 100 -268 268 c-147 148
-272 277 -278 288 -5 10 -15 19 -22 19 -19 0 -87 73 -87 93 0 10 -8 17 -18 17
-10 0 -29 12 -43 26 -25 26 -86 67 -104 70 -6 1 -27 -4 -47 -11z"/>
</g>
</svg>
